# This file uses centimeters as units for non-parametric coordinates.

v -0.134262 -0.475416 2.133724
v 1.677131 1.068479 1.981833
v 0.702833 -0.194923 2.245458
v 1.249179 0.376180 2.213041
v 2.026507 2.335926 1.186510
v 2.120051 0.793670 0.822487
v 2.724054 0.187329 0.385102
v -0.793446 -0.199878 2.242584
v -1.780636 1.069489 1.981833
v -1.353969 0.376180 2.213041
v -2.880430 0.633909 0.523441
v -2.824522 0.458395 0.743225
v -2.305957 1.526409 1.357533
v -1.970264 0.413238 2.164843
v -1.465726 -0.335219 2.488161
v -0.817505 -0.959774 2.583372
v -0.135697 -1.271937 2.494203
v 0.727140 -0.954041 2.585959
v 1.360935 -0.335219 2.488161
v 1.877712 0.403622 2.164843
v 2.214033 1.448709 1.386607
v 2.707615 0.453735 0.888991
v 2.683192 0.207406 0.368765
v 0.131888 -1.243272 2.507137
v 0.128714 -0.450639 2.148093
v 0.004315 -0.494119 2.122877
v 1.870208 1.751867 1.618729
v 0.990923 0.070927 2.246820
v 1.474018 0.659307 2.152325
v 1.943270 1.758590 0.956989
v 2.301675 0.399550 0.563589
v -0.135697 -0.795149 2.225403
v 0.720565 -0.500132 2.363324
v 1.776511 0.829356 2.035997
v 2.066691 1.926379 1.219763
v 1.308302 0.105571 2.319597
v 2.582439 0.248392 0.388415
v 2.437160 0.760972 0.854436
v -0.436572 -0.379664 2.189256
v -1.969856 1.755907 1.618729
v -1.095713 0.070927 2.246820
v -1.578809 0.659307 2.152325
v -0.810930 -0.505324 2.359770
v -1.876159 0.833396 2.035997
v -2.256656 1.947446 1.182078
v -2.529501 1.683455 0.749879
v -2.919198 0.625789 0.653515
v -1.413093 0.105571 2.319597
v -2.677699 0.198803 0.882344
v -2.382413 0.873473 1.629625
v -2.487249 1.157850 0.997457
v -2.116200 -0.238336 2.364657
v -2.146290 1.103601 1.785743
v -1.547348 -1.018788 2.749567
v -1.739897 -0.020867 2.377591
v -0.827702 -1.664528 2.930131
v -1.158287 -0.666325 2.560725
v -0.135697 -2.011331 2.911052
v -0.443305 -1.161157 2.544189
v 0.737337 -1.657957 2.931218
v 0.005308 -1.293575 2.484439
v 1.442557 -1.018788 2.749567
v 1.053496 -0.666325 2.560725
v 2.034654 -0.256600 2.364657
v 1.635107 -0.020867 2.377591
v 2.442528 0.707946 1.645347
v 2.090455 1.065135 1.785743
v 2.880881 -0.022724 0.942579
v 2.189141 1.039378 1.113755
v 2.839439 0.143845 0.338293
v 2.262128 0.308371 0.634121
v 0.396218 -1.138226 2.554537
v 0.131888 -1.978474 2.916487
v 0.388492 -0.359843 2.200752
v 0.131888 -0.769187 2.243174
v 0.005308 -0.814746 2.211989
v 1.975551 1.526421 1.630064
v 1.963414 1.459159 1.004637
v 1.027194 -0.218242 2.364229
v 1.556085 0.405254 2.238014
v 2.060206 0.468029 0.638905
v -0.443305 -0.694817 2.294079
v -2.059773 1.542583 1.630064
v -2.511748 1.462618 0.853901
v -1.131985 -0.218242 2.364229
v -1.660875 0.405254 2.238013
v -2.449256 0.685221 1.220082
v -2.280459 0.422836 2.027166
v -1.862443 -0.681688 2.594047
v -1.199076 -1.361205 2.865448
v -0.443305 -1.884350 2.932055
v 0.005308 -2.036135 2.906949
v 1.094285 -1.361205 2.865448
v 1.757652 -0.681688 2.594047
v 2.268647 0.349781 2.027166
v 2.539194 0.388389 1.282973
v 2.908300 0.060775 0.626702
v 0.396218 -1.858064 2.936404
v 0.396218 -0.674048 2.308295
v 2.633683 0.227546 0.378421
v 2.162907 0.386824 0.636471
v 2.574717 0.604706 0.872011
v 2.078223 1.245652 1.060136
v 2.141631 1.683428 1.304622
v 2.033993 1.291804 1.709245
v 1.827983 0.612821 2.101530
v 1.596276 0.188522 2.309005
v 1.335072 -0.118622 2.405331
v 1.040572 -0.446144 2.464170
v 0.723909 -0.730997 2.476560
v 0.396218 -0.910136 2.433538
v 0.131888 -1.010314 2.377430
v 0.005308 -1.058286 2.350561
v -0.135697 -1.037651 2.362119
v -0.443305 -0.932005 2.421289
v -0.814274 -0.736465 2.473498
v -1.145363 -0.446144 2.464170
v -1.439863 -0.118622 2.405331
v -1.701067 0.188522 2.309005
v -1.924023 0.619697 2.101530
v -2.103777 1.319310 1.709245
v -2.281731 1.733300 1.271317
v -2.499288 1.307608 0.926916
v -2.871045 0.540650 0.699143
v -2.364701 -0.021318 0.945346
v -2.541540 -0.019256 1.416749
v -2.541860 0.069228 1.853086
v -2.470813 -0.387568 2.224062
v -2.310610 -1.019082 2.526865
v -2.043464 -1.454756 2.758684
v -1.703604 -1.782227 2.940712
v -1.325259 -2.089132 3.094146
v -0.917660 -2.358464 3.188105
v -0.490034 -2.573214 3.191711
v -0.145655 -2.706891 3.162067
v 0.012206 -2.733002 3.156277
v 0.153917 -2.672301 3.169738
v 0.449845 -2.545542 3.197848
v 0.829019 -2.351546 3.189639
v 1.220468 -2.089132 3.094146
v 1.598813 -1.782226 2.940712
v 1.938673 -1.454756 2.758684
v 2.234708 -1.040939 2.526865
v 2.481576 -0.474995 2.224062
v 2.683832 -0.133393 1.859395
v 2.846030 -0.392604 1.441985
v 2.919198 -0.697782 1.012292
v 2.854364 -0.494085 0.610774
v 2.917312 -0.098562 0.238520
v -2.178572 2.733002 0.976317
v 2.279048 1.263365 -2.200572
v 1.619854 0.628184 -2.490942
v -0.052395 0.094205 -3.151382
v -2.445281 1.513856 -1.874606
v -1.746062 0.672596 -2.442793
v 2.265557 1.602456 -2.356087
v 2.532285 0.577407 -1.779808
v 1.907591 1.078889 -2.320549
v 1.599659 1.287666 -2.527723
v 1.783088 -0.197234 -2.334204
v 0.893407 0.258666 -2.892678
v -0.052396 -0.509140 -3.197848
v -0.052395 0.692528 -3.068900
v -2.431589 1.885801 -2.065339
v -2.098051 1.256540 -2.127950
v -1.730869 1.330619 -2.484587
v -2.514956 0.629128 -1.340165
v -1.879014 -0.187096 -2.269436
v -0.998198 0.258666 -2.892678
v 1.888660 1.592097 -2.431764
v 2.331207 0.169110 -2.227165
v 0.978095 -0.445632 -2.875092
v 0.881037 0.904096 -2.850675
v -2.099126 1.763913 -2.259224
v -2.206417 0.334479 -1.743489
v -1.082886 -0.445632 -2.875092
v -0.985828 0.904096 -2.850675
v 2.786044 -0.170901 -1.237415
v 2.369884 -0.627733 -1.947501
v 1.870322 -0.994797 -2.271094
v 1.065538 -1.040627 -2.835473
v -0.052396 -1.023426 -3.179643
v -1.170330 -1.040627 -2.813865
v -2.032531 -0.952130 -2.105983
v -2.383268 -0.617835 -1.423839
v -2.588133 -0.305050 -0.797183
v -2.425023 2.117034 -2.014347
v -2.108757 2.026948 -2.238877
v -1.716365 1.719506 -2.460436
v -0.972299 1.331694 -2.798058
v -0.052395 1.117696 -2.995884
v 0.867508 1.331695 -2.798058
v 1.591465 1.690183 -2.499744
v 1.923532 1.909656 -2.396106
v 2.289168 1.885159 -2.289817
vn 0.234460 0.279744 0.931006
vn 0.255743 0.366494 0.894582
vn -0.090561 0.275270 0.957092
vn -0.094763 0.381008 0.919703
vn 0.261444 0.471686 0.842116
vn 0.246967 0.468328 0.848337
vn -0.097961 0.490027 0.866185
vn -0.097152 0.488112 0.867357
vn -0.322845 0.453248 0.830866
vn -0.344011 0.454988 0.821366
vn -0.298238 0.283504 0.911416
vn -0.336939 0.354341 0.872304
vn 0.731762 0.299948 0.612009
vn 0.390951 0.344870 0.853359
vn 0.618036 0.345512 0.706153
vn 0.322487 0.340965 0.883032
vn 0.316581 0.353303 0.880314
vn 0.570071 0.402840 0.716058
vn 0.321792 0.345281 0.881607
vn 0.549927 0.388507 0.739353
vn 0.945952 0.320618 0.048771
vn 0.952494 0.303008 -0.030680
vn 0.980769 0.109357 0.161657
vn 0.988317 0.141835 0.055783
vn 0.931465 0.022871 -0.363112
vn 0.940321 0.215642 -0.263240
vn 0.892805 0.407489 -0.191967
vn 0.924996 0.369535 -0.088471
vn 0.783884 0.614822 -0.086719
vn 0.616832 0.471925 -0.629925
vn 0.173556 0.338205 -0.924930
vn 0.399068 0.441044 -0.803881
vn -0.263700 0.327356 0.907359
vn -0.302544 0.327439 0.895126
vn -0.278784 0.345590 0.896018
vn -0.325238 0.359251 0.874734
vn -0.278215 0.404537 0.871175
vn -0.189784 0.368154 0.910189
vn -0.330226 0.411298 0.849579
vn -0.268670 0.374646 0.887388
vn -0.045155 0.338030 0.940051
vn -0.131736 0.342071 0.930394
vn -0.149738 0.319824 0.935570
vn -0.165253 0.330715 0.929150
vn 0.094250 0.332368 0.938429
vn 0.051700 0.329654 0.942685
vn 0.149421 0.330808 0.931794
vn 0.086931 0.328844 0.940375
vn 0.974922 -0.171393 0.141954
vn 0.041995 -0.660797 0.749389
vn 0.407220 0.768477 -0.493575
vn 0.528235 0.635874 -0.562701
vn 0.358765 0.910283 0.206574
vn 0.430085 0.831046 0.352689
vn -0.387522 -0.907516 0.161992
vn -0.305459 -0.844461 0.439977
vn 0.331846 0.412420 0.848404
vn 0.281170 0.405865 0.869608
vn 0.330287 0.444888 0.832457
vn 0.301940 0.440103 0.845661
vn 0.319650 0.360902 0.876113
vn 0.291228 0.304472 0.906908
vn 0.301940 0.326224 0.895773
vn 0.324923 0.358267 0.875254
vn -0.842876 0.283336 0.457473
vn -0.880849 0.263039 0.393594
vn -0.561813 0.371349 0.739234
vn -0.618077 0.361234 0.698205
vn -0.323017 0.350886 0.878942
vn -0.325918 0.344445 0.880417
vn -0.325170 0.339618 0.882567
vn -0.395946 0.345081 0.850967
vn -0.618133 0.323428 0.716454
vn -0.711071 0.280150 0.644899
vn -0.833906 0.215928 0.507913
vn -0.828544 0.224742 0.512842
vn -0.774360 0.045382 0.631115
vn -0.901752 0.171540 0.396759
vn -0.650132 0.061828 0.757302
vn -0.841558 0.179909 0.509327
vn -0.871157 0.177931 0.457631
vn -0.861082 0.176877 0.476710
vn -0.889088 0.442399 -0.117500
vn -0.895242 0.345315 0.281603
vn 0.131737 0.342071 0.930394
vn 0.045155 0.338030 0.940051
vn 0.270225 0.374543 0.886959
vn 0.192051 0.368262 0.909670
vn 0.279604 0.345181 0.895920
vn 0.264373 0.327347 0.907166
vn 0.149738 0.319824 0.935570
vn 0.165254 0.330715 0.929150
vn -0.083676 0.328564 0.940768
vn -0.145478 0.330627 0.932482
vn -0.049020 0.329328 0.942942
vn -0.092098 0.332417 0.938625
vn -0.947282 0.145689 0.285362
vn -0.927342 -0.105865 0.358929
vn -0.536930 -0.820102 -0.197834
vn -0.996562 0.030148 0.077169
vn -0.907640 0.258091 0.331026
vn -0.905227 0.251975 0.342160
vn -0.597768 0.344791 0.723735
vn -0.515989 0.304393 0.800687
vn -0.359578 0.274619 0.891790
vn -0.360284 0.314480 0.878236
vn -0.217970 0.301609 0.928182
vn -0.251776 0.271573 0.928901
vn -0.145611 0.292629 0.945075
vn -0.068119 0.313513 0.947138
vn 0.061577 0.342219 0.937600
vn -0.021331 0.325077 0.945447
vn 0.111036 0.339331 0.934091
vn 0.168624 0.375389 0.911399
vn 0.221006 0.396290 0.891129
vn 0.185749 0.334162 0.924031
vn 0.163661 0.332588 0.928763
vn 0.187753 0.405392 0.894654
vn -0.067088 0.409254 0.909951
vn -0.051571 0.335970 0.940460
vn -0.226876 0.327015 0.917381
vn -0.250695 0.400177 0.881482
vn -0.057547 0.341818 0.938003
vn -0.160679 0.373759 0.913502
vn -0.100925 0.341724 0.934365
vn 0.027522 0.326287 0.944870
vn 0.145611 0.292629 0.945074
vn 0.068119 0.313513 0.947138
vn 0.216670 0.301357 0.928568
vn 0.252544 0.271187 0.928805
vn 0.350303 0.273892 0.895696
vn 0.343339 0.313536 0.885333
vn 0.530196 0.360309 0.767509
vn 0.480499 0.307350 0.821375
vn 0.837805 0.365490 0.405585
vn 0.882470 0.388826 0.264689
vn 0.897854 0.403421 0.176379
vn 0.938329 0.289588 0.188883
vn 0.998332 0.057353 0.006637
vn 0.947806 0.237379 0.212874
vn 0.919642 0.381175 -0.094677
vn 0.998389 -0.017635 -0.053930
vn 0.999684 -0.003958 0.024835
vn 0.784213 0.620434 -0.008538
vn -0.312516 0.434946 0.844486
vn -0.227781 0.393416 0.890696
vn -0.193047 0.334255 0.922500
vn -0.301376 0.309703 0.901807
vn -0.333412 0.360165 0.871274
vn -0.342555 0.439005 0.830621
vn 0.223729 -0.158432 -0.961688
vn 0.399293 -0.313635 -0.861509
vn 0.302882 -0.074203 -0.950135
vn 0.519086 -0.029634 -0.854208
vn 0.438521 -0.016668 -0.898566
vn 0.412975 -0.004018 -0.910734
vn 0.307889 0.073545 -0.948576
vn 0.235762 0.115188 -0.964960
vn 0.285815 0.196019 -0.938023
vn 0.831861 0.093907 -0.546981
vn 0.897084 -0.069961 -0.436286
vn 0.686184 -0.030035 -0.726808
vn 0.887343 -0.113761 -0.446856
vn 0.477936 -0.073106 -0.875347
vn 0.562752 0.005156 -0.826610
vn 0.426113 0.015140 -0.904543
vn 0.440276 0.004921 -0.897849
vn -0.003535 -0.036398 -0.999331
vn -0.000000 0.022943 -0.999737
vn 0.000000 0.085766 -0.996315
vn 0.374219 0.033395 -0.926739
vn 0.308457 0.077110 -0.948108
vn 0.000000 0.131046 -0.991376
vn 0.000000 0.159153 -0.987254
vn 0.274576 0.119270 -0.954140
vn -0.487660 0.078802 -0.869470
vn -0.418428 0.070199 -0.905533
vn -0.580734 -0.111511 -0.806420
vn -0.516580 -0.010760 -0.856171
vn -0.646519 -0.058977 -0.760615
vn -0.737537 -0.186074 -0.649165
vn -0.681237 -0.301078 -0.667284
vn -0.563486 -0.158925 -0.810695
vn -0.529624 0.196979 -0.825044
vn -0.854151 -0.074859 -0.514609
vn -0.730721 -0.006785 -0.682643
vn -0.754861 0.011363 -0.655787
vn -0.904687 0.043147 -0.423886
vn -0.921577 -0.023312 -0.387495
vn -0.825192 -0.200496 -0.528071
vn -0.399873 0.029957 -0.916081
vn -0.449019 0.008951 -0.893477
vn -0.489882 -0.031897 -0.871205
vn -0.293820 0.119812 -0.948322
vn -0.328438 0.075973 -0.941465
vn 0.477415 -0.129873 -0.869027
vn 0.546968 -0.006417 -0.837129
f 1//1 32//2 26//3
f 26//3 32//2 76//4
f 114//5 17//6 113//7
f 113//7 17//6 61//8
f 61//8 24//9 113//7
f 113//7 24//9 112//10
f 25//11 26//3 75//12
f 75//12 26//3 76//4
f 27//13 2//14 77//15
f 77//15 2//14 34//16
f 20//17 67//18 106//19
f 106//19 67//18 105//20
f 67//18 21//21 105//20
f 105//20 21//21 104//22
f 5//23 27//13 35//24
f 35//24 27//13 77//15
f 5//23 35//24 30//25
f 30//25 35//24 78//26
f 104//22 21//21 103//27
f 103//27 21//21 69//28
f 22//29 102//30 69//28
f 69//28 102//30 103//27
f 30//25 78//26 6//31
f 38//32 6//31 78//26
f 28//33 3//34 79//35
f 79//35 3//34 33//36
f 18//37 63//38 110//39
f 110//39 63//38 109//40
f 63//38 19//41 109//40
f 109//40 19//41 108//42
f 4//43 28//33 36//44
f 36//44 28//33 79//35
f 29//45 4//43 80//46
f 80//46 4//43 36//44
f 19//41 65//47 108//42
f 108//42 65//47 107//48
f 65//47 20//17 107//48
f 107//48 20//17 106//19
f 2//14 29//45 34//16
f 34//16 29//45 80//46
f 38//32 81//49 6//31
f 31//50 6//31 81//49
f 22//29 71//51 102//30
f 102//30 71//51 101//52
f 23//53 100//54 71//51
f 71//51 100//54 101//52
f 7//55 31//50 37//56
f 37//56 31//50 81//49
f 116//57 16//58 115//59
f 115//59 16//58 59//60
f 17//6 114//5 59//60
f 59//60 114//5 115//59
f 32//2 1//1 82//61
f 82//61 1//1 39//62
f 8//63 43//64 39//62
f 39//62 43//64 82//61
f 122//65 13//66 121//67
f 121//67 13//66 53//68
f 14//69 120//70 53//68
f 53//68 120//70 121//67
f 44//71 9//72 83//73
f 83//73 9//72 40//74
f 150//75 45//76 40//74
f 40//74 45//76 83//73
f 12//77 51//78 124//79
f 124//79 51//78 123//80
f 51//78 13//66 123//80
f 123//80 13//66 122//65
f 150//75 46//81 45//76
f 45//76 46//81 84//82
f 46//81 11//83 84//82
f 84//82 11//83 47//84
f 118//85 15//86 117//87
f 117//87 15//86 57//88
f 16//58 116//57 57//88
f 57//88 116//57 117//87
f 43//64 8//63 85//89
f 85//89 8//63 41//90
f 10//91 48//92 41//90
f 41//90 48//92 85//89
f 120//70 14//69 119//93
f 119//93 14//69 55//94
f 15//86 118//85 55//94
f 55//94 118//85 119//93
f 48//92 10//91 86//95
f 86//95 10//91 42//96
f 9//72 44//71 42//96
f 42//96 44//71 86//95
f 51//78 12//77 87//97
f 87//97 12//77 49//98
f 125//99 126//100 49//98
f 49//98 126//100 87//97
f 126//100 127//101 87//97
f 87//97 127//101 50//102
f 13//66 51//78 50//102
f 50//102 51//78 87//97
f 13//66 50//102 53//68
f 53//68 50//102 88//103
f 50//102 127//101 88//103
f 88//103 127//101 128//104
f 129//105 52//106 128//104
f 128//104 52//106 88//103
f 52//106 14//69 88//103
f 88//103 14//69 53//68
f 14//69 52//106 55//94
f 55//94 52//106 89//107
f 52//106 129//105 89//107
f 89//107 129//105 130//108
f 131//109 54//110 130//108
f 130//108 54//110 89//107
f 54//110 15//86 89//107
f 89//107 15//86 55//94
f 15//86 54//110 57//88
f 57//88 54//110 90//111
f 54//110 131//109 90//111
f 90//111 131//109 132//112
f 133//113 56//114 132//112
f 132//112 56//114 90//111
f 56//114 16//58 90//111
f 90//111 16//58 57//88
f 16//58 56//114 59//60
f 59//60 56//114 91//115
f 56//114 133//113 91//115
f 91//115 133//113 134//116
f 135//117 58//118 134//116
f 134//116 58//118 91//115
f 58//118 17//6 91//115
f 91//115 17//6 59//60
f 17//6 58//118 61//8
f 61//8 58//118 92//119
f 58//118 135//117 92//119
f 92//119 135//117 136//120
f 136//120 137//121 92//119
f 92//119 137//121 73//122
f 24//9 61//8 73//122
f 73//122 61//8 92//119
f 63//38 18//37 93//123
f 93//123 18//37 60//124
f 139//125 140//126 60//124
f 60//124 140//126 93//123
f 140//126 141//127 93//123
f 93//123 141//127 62//128
f 19//41 63//38 62//128
f 62//128 63//38 93//123
f 65//47 19//41 94//129
f 94//129 19//41 62//128
f 141//127 142//130 62//128
f 62//128 142//130 94//129
f 142//130 143//131 94//129
f 94//129 143//131 64//132
f 20//17 65//47 64//132
f 64//132 65//47 94//129
f 67//18 20//17 95//133
f 95//133 20//17 64//132
f 143//131 144//134 64//132
f 64//132 144//134 95//133
f 144//134 145//135 95//133
f 95//133 145//135 66//136
f 21//21 67//18 66//136
f 66//136 67//18 95//133
f 21//21 66//136 69//28
f 69//28 66//136 96//137
f 66//136 145//135 96//137
f 96//137 145//135 146//138
f 147//139 68//140 146//138
f 146//138 68//140 96//137
f 68//140 22//29 96//137
f 96//137 22//29 69//28
f 71//51 22//29 97//141
f 97//141 22//29 68//140
f 147//139 148//142 68//140
f 68//140 148//142 97//141
f 148//142 149//143 97//141
f 97//141 149//143 70//144
f 70//144 23//53 97//141
f 97//141 23//53 71//51
f 72//145 24//9 98//146
f 98//146 24//9 73//122
f 137//121 138//147 73//122
f 73//122 138//147 98//146
f 138//147 139//125 98//146
f 98//146 139//125 60//124
f 18//37 72//145 60//124
f 60//124 72//145 98//146
f 74//148 25//11 99//149
f 99//149 25//11 75//12
f 24//9 72//145 112//10
f 112//10 72//145 111//150
f 72//145 18//37 111//150
f 111//150 18//37 110//39
f 3//34 74//148 33//36
f 33//36 74//148 99//149
f 100//54 37//56 101//52
f 101//52 37//56 81//49
f 102//30 101//52 38//32
f 38//32 101//52 81//49
f 102//30 38//32 103//27
f 103//27 38//32 78//26
f 35//24 104//22 78//26
f 78//26 104//22 103//27
f 105//20 104//22 77//15
f 77//15 104//22 35//24
f 106//19 105//20 34//16
f 34//16 105//20 77//15
f 107//48 106//19 80//46
f 80//46 106//19 34//16
f 108//42 107//48 36//44
f 36//44 107//48 80//46
f 109//40 108//42 79//35
f 79//35 108//42 36//44
f 110//39 109//40 33//36
f 33//36 109//40 79//35
f 111//150 110//39 99//149
f 99//149 110//39 33//36
f 112//10 111//150 75//12
f 75//12 111//150 99//149
f 113//7 112//10 76//4
f 76//4 112//10 75//12
f 32//2 114//5 76//4
f 76//4 114//5 113//7
f 114//5 32//2 115//59
f 115//59 32//2 82//61
f 43//64 116//57 82//61
f 82//61 116//57 115//59
f 116//57 43//64 117//87
f 117//87 43//64 85//89
f 48//92 118//85 85//89
f 85//89 118//85 117//87
f 118//85 48//92 119//93
f 119//93 48//92 86//95
f 44//71 120//70 86//95
f 86//95 120//70 119//93
f 120//70 44//71 121//67
f 121//67 44//71 83//73
f 45//76 122//65 83//73
f 83//73 122//65 121//67
f 123//80 122//65 84//82
f 84//82 122//65 45//76
f 124//79 123//80 47//84
f 47//84 123//80 84//82
f 156//151 151//152 170//153
f 170//153 151//152 158//154
f 152//155 159//156 158//154
f 158//154 159//156 170//153
f 159//156 193//157 170//153
f 170//153 193//157 194//158
f 195//159 156//151 194//158
f 194//158 156//151 170//153
f 157//160 178//161 171//162
f 171//162 178//161 179//163
f 160//164 152//155 171//162
f 171//162 152//155 158//154
f 151//152 157//160 158//154
f 158//154 157//160 171//162
f 160//164 180//165 172//166
f 172//166 180//165 181//167
f 181//167 182//168 172//166
f 172//166 182//168 162//169
f 162//169 153//170 172//166
f 172//166 153//170 161//171
f 152//155 160//164 161//171
f 161//171 160//164 172//166
f 159//156 152//155 173//172
f 173//172 152//155 161//171
f 153//170 163//173 161//171
f 161//171 163//173 173//172
f 163//173 191//174 173//172
f 173//172 191//174 192//175
f 193//157 159//156 192//175
f 192//175 159//156 173//172
f 188//176 189//177 174//178
f 174//178 189//177 166//179
f 155//180 165//181 166//179
f 166//179 165//181 174//178
f 165//181 154//182 174//178
f 174//178 154//182 164//183
f 187//184 188//176 164//183
f 164//183 188//176 174//178
f 165//181 155//180 175//185
f 175//185 155//180 168//186
f 184//187 185//188 168//186
f 168//186 185//188 175//185
f 185//188 186//189 175//185
f 175//185 186//189 167//190
f 154//182 165//181 167//190
f 167//190 165//181 175//185
f 169//191 153//170 176//192
f 176//192 153//170 162//169
f 162//169 182//168 176//192
f 176//192 182//168 183//193
f 184//187 168//186 183//193
f 183//193 168//186 176//192
f 155//180 169//191 168//186
f 168//186 169//191 176//192
f 190//194 191//174 177//195
f 177//195 191//174 163//173
f 153//170 169//191 163//173
f 163//173 169//191 177//195
f 169//191 155//180 177//195
f 177//195 155//180 166//179
f 189//177 190//194 166//179
f 166//179 190//194 177//195
f 171//162 179//196 160//164
f 160//164 179//196 180//197
