# This file uses centimeters as units for non-parametric coordinates.

v -0.513117 0.569892 -0.360517
v -0.070799 0.504462 -0.523935
v -0.647927 0.530946 -1.187655
v -0.067879 0.520249 -1.355865
v -0.513483 -0.374381 -0.386504
v -0.080315 -0.431977 -0.548222
v -0.619717 -0.132601 -1.286160
v -0.225855 -0.161341 -1.408243
v -0.495207 -0.055378 0.748036
v 0.348028 -0.049647 0.418191
v -0.467904 -0.487743 0.817845
v 0.375333 -0.482013 0.487999
v -0.189336 0.148739 1.359495
v 0.490557 0.161431 1.093545
v -0.166221 -0.117466 1.418593
v 0.513673 -0.104774 1.152642
v -0.275426 0.599885 -0.312361
v -0.653042 0.558048 -0.818249
v -0.365732 0.522420 -1.389573
v -0.015790 0.512206 -1.018395
v -0.581076 0.053084 -0.347793
v -0.003530 -0.020901 -0.563442
v -0.298430 -0.542936 -0.471278
v -0.692441 0.159077 -1.293017
v -0.626477 -0.271956 -0.978241
v -0.120593 0.133018 -1.465367
v -0.450151 -0.219736 -1.490740
v -0.154979 -0.325656 -1.131785
v -0.504981 0.174243 0.200023
v 0.114394 0.145761 -0.042255
v -0.078141 0.019549 0.571479
v -0.489380 -0.477089 0.239914
v -0.622095 -0.272515 0.837914
v 0.129997 -0.505572 -0.002365
v -0.041735 -0.556939 0.664557
v 0.502220 -0.264876 0.398121
v -0.393993 0.045367 1.184336
v 0.523862 0.062502 0.825303
v 0.175136 0.253379 1.290153
v -0.362789 -0.314010 1.264118
v -0.268189 0.065124 1.509561
v 0.555069 -0.296877 0.905084
v 0.206342 -0.105998 1.369935
v 0.649667 0.082258 1.150527
v -0.399455 -0.434849 -1.077323
v 0.227473 0.140172 1.425155
v -0.678859 0.139505 -0.885671
v -0.420507 0.158290 -1.509561
v -0.050235 0.079138 -1.090497
v -0.197894 0.268558 0.072235
v -0.600410 -0.146676 0.260348
v -0.177091 -0.599885 0.125423
v 0.225425 -0.184653 -0.062690
v 0.059734 0.113830 0.991523
v -0.531367 -0.137177 1.284066
v 0.101341 -0.365339 1.097898
v 0.692441 -0.114332 0.805355
vt 0.500000 0.125000
vt 0.875000 0.125000
vt 0.875000 0.500000
vt 0.500000 0.500000
vt 0.777778 0.777778
vt 0.500000 0.875000
vt 0.222222 0.777778
vt 0.125000 0.500000
vt 0.125000 0.125000
vt 0.500000 0.000000
vt 0.777778 0.000000
vt 0.875000 0.000000
vt 0.500000 0.000000
vt 0.777778 0.000000
vt 0.500000 0.000000
vt 0.222222 0.000000
vt 0.125000 0.000000
vt 0.222222 0.000000
vt 1.000000 0.500000
vt 0.875000 0.875000
vt 0.875000 0.875000
vt 1.000000 0.500000
vt 1.000000 0.125000
vt 0.920000 0.080000
vt 0.500000 1.000000
vt 0.125000 0.875000
vt 0.125000 0.875000
vt 0.500000 1.000000
vt 0.000000 0.500000
vt 0.080000 0.080000
vt 0.000000 0.125000
vt 0.000000 0.500000
vt 0.500000 0.000000
vt 0.875000 0.000000
vt 0.500000 0.000000
vt 0.875000 0.000000
vt 0.500000 0.000000
vt 0.125000 0.000000
vt 0.125000 0.000000
vt 0.875000 0.000000
vt 1.000000 0.000000
vt 0.875000 0.000000
vt 1.000000 0.000000
vt 0.125000 0.000000
vt 0.500000 0.000000
vt 0.125000 0.000000
vt 0.500000 0.000000
vt 0.000000 0.000000
vt 0.000000 0.000000
vt 0.875000 0.000000
vt 0.500000 0.000000
vt 0.125000 0.000000
vt 0.875000 0.000000
vt 1.000000 0.000000
vt 0.125000 0.000000
vt 0.500000 0.000000
vt 0.000000 0.000000
vn -0.872229 -0.488767 0.017967
vn -0.891618 -0.452528 -0.015367
vn -0.178152 -0.977343 -0.114293
vn -0.183882 -0.948541 -0.257794
vn -0.872083 -0.344112 -0.347933
vn -0.267552 -0.553082 -0.788997
vn 0.633600 -0.459145 -0.622685
vn 0.778735 -0.551375 -0.299263
vn 0.768392 -0.560930 -0.308111
vn -0.018320 0.999828 -0.002871
vn -0.273255 0.961084 0.040607
vn 0.349355 0.244716 0.904469
vn -0.281053 0.159822 0.946291
vn 0.059837 -0.565080 0.822863
vn 0.313089 -0.548347 0.775429
vn 0.530396 -0.559687 0.636734
vn 0.844884 0.163496 0.509352
vn 0.199718 0.969256 -0.143718
vn -0.985117 0.076246 0.154048
vn -0.918075 0.188083 -0.348946
vn -0.993462 -0.048447 0.103373
vn -0.912343 0.034957 -0.407931
vn -0.994458 -0.006363 0.104939
vn -0.863877 0.343240 0.368651
vn 0.807778 0.071234 -0.585167
vn 0.715443 -0.089797 -0.692876
vn -0.248205 0.310368 -0.917642
vn -0.278446 0.134649 -0.950967
vn 0.946152 0.311792 0.087075
vn 0.976547 -0.027450 -0.213549
vn 0.999032 0.003937 -0.043805
vn 0.975493 -0.152478 -0.158630
vn 0.324264 0.748030 0.579055
vn 0.228324 0.853379 0.468628
vn -0.636872 0.684407 0.354939
vn -0.517128 0.850164 0.098992
vn 0.031120 0.994501 0.099998
vn 0.461811 0.865424 -0.194348
vn 0.767989 0.639840 0.028228
vn -0.999770 -0.020266 0.006978
vn -0.673293 -0.738739 -0.030676
vn -0.363512 -0.906358 0.215347
vn -0.982746 -0.125517 0.135851
vn 0.581550 -0.757185 -0.297441
vn -0.080554 -0.996259 -0.031303
vn 0.474146 -0.880299 0.016102
vn 0.064425 -0.978951 0.193659
vn 0.907744 -0.005364 -0.419490
vn 0.903509 -0.092977 -0.418362
vn -0.120950 0.960841 -0.249312
vn -0.490085 0.868736 -0.071513
vn 0.289435 0.894269 -0.341335
vn -0.182183 -0.814661 0.550579
vn -0.891833 0.000975 0.452363
vn 0.189212 -0.868816 0.457557
vn 0.526985 -0.793160 0.305260
vn 0.980221 0.017169 -0.197158
f 5/2/1 25/3/2 23/1/3
f 23/1/3 25/3/2 45/4/4
f 25/3/2 7/5/5 45/4/4
f 45/4/4 7/5/5 27/6/6
f 27/6/6 8/7/7 45/4/4
f 45/4/4 8/7/7 28/8/8
f 28/8/8 6/9/9 45/4/4
f 45/4/4 6/9/9 23/1/3
f 39/10/10 13/11/11 46/13/12
f 46/13/12 13/11/11 41/12/13
f 41/12/13 15/14/14 46/13/12
f 46/13/12 15/14/14 43/15/15
f 43/15/15 16/16/16 46/13/12
f 46/13/12 16/16/16 44/17/17
f 44/17/17 14/18/18 46/13/12
f 46/13/12 14/18/18 39/10/10
f 18/19/19 3/20/20 47/22/21
f 47/22/21 3/20/20 24/21/22
f 24/21/22 7/5/5 47/22/21
f 47/22/21 7/5/5 25/3/2
f 5/2/1 21/23/23 25/3/2
f 25/3/2 21/23/23 47/22/21
f 1/24/24 18/19/19 21/23/23
f 21/23/23 18/19/19 47/22/21
f 4/26/25 26/27/26 19/25/27
f 19/25/27 26/27/26 48/28/28
f 26/27/26 8/7/7 48/28/28
f 48/28/28 8/7/7 27/6/6
f 27/6/6 7/5/5 48/28/28
f 48/28/28 7/5/5 24/21/22
f 3/20/20 19/25/27 24/21/22
f 24/21/22 19/25/27 48/28/28
f 2/30/29 22/31/30 20/29/31
f 20/29/31 22/31/30 49/32/32
f 6/9/9 28/8/8 22/31/30
f 22/31/30 28/8/8 49/32/32
f 28/8/8 8/7/7 49/32/32
f 49/32/32 8/7/7 26/27/26
f 26/27/26 4/26/25 49/32/32
f 49/32/32 4/26/25 20/29/31
f 17/33/33 1/24/24 50/35/34
f 50/35/34 1/24/24 29/34/35
f 9/36/36 31/37/37 29/34/35
f 29/34/35 31/37/37 50/35/34
f 10/38/38 30/39/39 31/37/37
f 31/37/37 30/39/39 50/35/34
f 30/39/39 2/30/29 50/35/34
f 50/35/34 2/30/29 17/33/33
f 21/23/23 5/2/1 51/41/40
f 51/41/40 5/2/1 32/40/41
f 11/42/42 33/43/43 32/40/41
f 32/40/41 33/43/43 51/41/40
f 33/43/43 9/36/36 51/41/40
f 51/41/40 9/36/36 29/34/35
f 1/24/24 21/23/23 29/34/35
f 29/34/35 21/23/23 51/41/40
f 6/9/9 34/44/44 23/1/3
f 23/1/3 34/44/44 52/45/45
f 34/44/44 12/46/46 52/45/45
f 52/45/45 12/46/46 35/47/47
f 11/42/42 32/40/41 35/47/47
f 35/47/47 32/40/41 52/45/45
f 32/40/41 5/2/1 52/45/45
f 52/45/45 5/2/1 23/1/3
f 2/30/29 30/39/39 22/31/30
f 22/31/30 30/39/39 53/48/48
f 30/39/39 10/38/38 53/48/48
f 53/48/48 10/38/38 36/49/49
f 12/46/46 34/44/44 36/49/49
f 36/49/49 34/44/44 53/48/48
f 34/44/44 6/9/9 53/48/48
f 53/48/48 6/9/9 22/31/30
f 31/37/37 9/36/36 54/51/50
f 54/51/50 9/36/36 37/50/51
f 37/50/51 13/11/11 54/51/50
f 54/51/50 13/11/11 39/10/10
f 39/10/10 14/18/18 54/51/50
f 54/51/50 14/18/18 38/52/52
f 10/38/38 31/37/37 38/52/52
f 38/52/52 31/37/37 54/51/50
f 11/42/42 40/53/53 33/43/43
f 33/43/43 40/53/53 55/54/54
f 40/53/53 15/14/14 55/54/54
f 55/54/54 15/14/14 41/12/13
f 13/11/11 37/50/51 41/12/13
f 41/12/13 37/50/51 55/54/54
f 9/36/36 33/43/43 37/50/51
f 37/50/51 33/43/43 55/54/54
f 35/47/47 12/46/46 56/56/55
f 56/56/55 12/46/46 42/55/56
f 42/55/56 16/16/16 56/56/55
f 56/56/55 16/16/16 43/15/15
f 43/15/15 15/14/14 56/56/55
f 56/56/55 15/14/14 40/53/53
f 40/53/53 11/42/42 56/56/55
f 56/56/55 11/42/42 35/47/47
f 36/49/49 10/38/38 57/57/57
f 57/57/57 10/38/38 38/52/52
f 14/18/18 44/17/17 38/52/52
f 38/52/52 44/17/17 57/57/57
f 44/17/17 16/16/16 57/57/57
f 57/57/57 16/16/16 42/55/56
f 12/46/46 36/49/49 42/55/56
f 42/55/56 36/49/49 57/57/57
